# xmcd CD database file
#
# Track frame offsets:
#	150
#	12379
#	29022
#	40572
#	63803
#	82640
#	102671
#	123747
#	143182
#	160763
#	181724
#
# Disc length: 2482 seconds
#
# Revision: 0
# Processed by: cddbd v1.4PL0 Copyright (c) Steve Scherf et al.
# Submitted via: CDex 1.40Release
#
DISCID=8509b00b
DTITLE=The Hoochie Coochie Band - Back to School
DYEAR=2000
DGENRE=Blues
TTITLE0=Hold You
TTITLE1=My Heart Is Crying
TTITLE2=You Spent My Money
TTITLE3=Oh, Mercy
TTITLE4=I´m Going Out
TTITLE5=Little Mama
TTITLE6=Like A King
TTITLE7=You´re No Good For Nothing
TTITLE8=The Riverside Blues
TTITLE9=Hug Me, Kiss Me
TTITLE10=?Bonus track?
EXTD=YEAR: 2000 ID3G: 0
EXTT0=
EXTT1=
EXTT2=
EXTT3=
EXTT4=
EXTT5=
EXTT6=
EXTT7=
EXTT8=
EXTT9=
EXTT10=
PLAYORDER=
